<svg width="512" height="120" viewBox="0 0 512 120" fill="none" xmlns="http://www.w3.org/2000/svg">
<g clip-path="url(#clip0)">
<path d="M14.215 104.945C14.985 104.945 15.7 104.82 16.36 104.57C17.03 104.31 17.655 103.975 18.235 103.565L19.615 105.44C18.915 106.02 18.075 106.49 17.095 106.85C16.125 107.2 15.15 107.375 14.17 107.375C12.58 107.375 11.22 107.035 10.09 106.355C8.97 105.675 8.115 104.72 7.525 103.49C6.935 102.26 6.64 100.82 6.64 99.17C6.64 97.57 6.935 96.145 7.525 94.895C8.125 93.635 8.99 92.64 10.12 91.91C11.25 91.18 12.615 90.815 14.215 90.815C16.275 90.815 18.065 91.435 19.585 92.675L18.22 94.55C16.89 93.63 15.56 93.17 14.23 93.17C12.91 93.17 11.83 93.66 10.99 94.64C10.15 95.62 9.73 97.13 9.73 99.17C9.73 101.22 10.15 102.695 10.99 103.595C11.84 104.495 12.915 104.945 14.215 104.945ZM31.0183 90.815C33.2783 90.815 34.9933 91.565 36.1633 93.065C37.3433 94.565 37.9333 96.57 37.9333 99.08C37.9333 100.71 37.6633 102.15 37.1233 103.4C36.5933 104.65 35.8133 105.625 34.7833 106.325C33.7533 107.025 32.4883 107.375 30.9883 107.375C28.7283 107.375 27.0033 106.625 25.8133 105.125C24.6333 103.625 24.0433 101.62 24.0433 99.11C24.0433 97.47 24.3083 96.03 24.8383 94.79C25.3783 93.54 26.1633 92.565 27.1933 91.865C28.2333 91.165 29.5083 90.815 31.0183 90.815ZM31.0183 93.11C29.7183 93.11 28.7383 93.6 28.0783 94.58C27.4183 95.55 27.0883 97.06 27.0883 99.11C27.0883 101.14 27.4133 102.645 28.0633 103.625C28.7133 104.595 29.6883 105.08 30.9883 105.08C32.2883 105.08 33.2633 104.595 33.9133 103.625C34.5633 102.645 34.8883 101.13 34.8883 99.08C34.8883 97.04 34.5633 95.535 33.9133 94.565C33.2633 93.595 32.2983 93.11 31.0183 93.11ZM53.4766 90.815C54.0166 90.815 54.5216 90.935 54.9916 91.175C55.4716 91.415 55.8566 91.855 56.1466 92.495C56.4366 93.125 56.5816 94.04 56.5816 95.24V107H53.9566V95.66C53.9566 94.74 53.8966 94.08 53.7766 93.68C53.6666 93.27 53.3466 93.065 52.8166 93.065C52.3766 93.065 51.9366 93.2 51.4966 93.47C51.0666 93.74 50.6466 94.19 50.2366 94.82V107H47.7166V95.66C47.7166 94.74 47.6566 94.08 47.5366 93.68C47.4266 93.27 47.1066 93.065 46.5766 93.065C46.1266 93.065 45.6866 93.2 45.2566 93.47C44.8266 93.74 44.4066 94.19 43.9966 94.82V107H41.3716V91.19H43.5916L43.7716 92.96C44.2116 92.35 44.6966 91.84 45.2266 91.43C45.7666 91.02 46.4216 90.815 47.1916 90.815C47.7916 90.815 48.3466 90.96 48.8566 91.25C49.3766 91.54 49.7566 92.08 49.9966 92.87C50.4266 92.26 50.9166 91.765 51.4666 91.385C52.0166 91.005 52.6866 90.815 53.4766 90.815ZM71.4648 90.815C72.0048 90.815 72.5098 90.935 72.9798 91.175C73.4598 91.415 73.8448 91.855 74.1348 92.495C74.4248 93.125 74.5698 94.04 74.5698 95.24V107H71.9448V95.66C71.9448 94.74 71.8848 94.08 71.7648 93.68C71.6548 93.27 71.3348 93.065 70.8048 93.065C70.3648 93.065 69.9248 93.2 69.4848 93.47C69.0548 93.74 68.6348 94.19 68.2248 94.82V107H65.7048V95.66C65.7048 94.74 65.6448 94.08 65.5248 93.68C65.4148 93.27 65.0948 93.065 64.5648 93.065C64.1148 93.065 63.6748 93.2 63.2448 93.47C62.8148 93.74 62.3948 94.19 61.9848 94.82V107H59.3598V91.19H61.5798L61.7598 92.96C62.1998 92.35 62.6848 91.84 63.2148 91.43C63.7548 91.02 64.4098 90.815 65.1798 90.815C65.7798 90.815 66.3348 90.96 66.8448 91.25C67.3648 91.54 67.7448 92.08 67.9848 92.87C68.4148 92.26 68.9048 91.765 69.4548 91.385C70.0048 91.005 70.6748 90.815 71.4648 90.815ZM90.4731 103.37C90.4731 104 90.5731 104.46 90.7731 104.75C90.9731 105.03 91.2881 105.24 91.7181 105.38L91.0431 107.36C90.3231 107.27 89.6931 107.055 89.1531 106.715C88.6231 106.375 88.2331 105.855 87.9831 105.155C87.4131 105.895 86.6931 106.45 85.8231 106.82C84.9531 107.19 84.0081 107.375 82.9881 107.375C81.3981 107.375 80.1431 106.925 79.2231 106.025C78.3031 105.125 77.8431 103.94 77.8431 102.47C77.8431 100.83 78.4831 99.57 79.7631 98.69C81.0531 97.8 82.9031 97.355 85.3131 97.355H87.6081V96.155C87.6081 95.065 87.2831 94.29 86.6331 93.83C85.9931 93.37 85.0981 93.14 83.9481 93.14C83.4181 93.14 82.7931 93.205 82.0731 93.335C81.3631 93.465 80.6031 93.67 79.7931 93.95L79.0581 91.85C80.0281 91.48 80.9631 91.215 81.8631 91.055C82.7631 90.895 83.6031 90.815 84.3831 90.815C86.4131 90.815 87.9331 91.28 88.9431 92.21C89.9631 93.14 90.4731 94.405 90.4731 96.005V103.37ZM83.7981 105.215C84.5281 105.215 85.2331 105.025 85.9131 104.645C86.6031 104.265 87.1681 103.735 87.6081 103.055V99.23H85.5081C83.8381 99.23 82.6531 99.515 81.9531 100.085C81.2531 100.645 80.9031 101.415 80.9031 102.395C80.9031 104.275 81.8681 105.215 83.7981 105.215ZM96.8064 107V91.19H99.2814L99.4914 93.32C100.141 92.51 100.931 91.89 101.861 91.46C102.801 91.03 103.736 90.815 104.666 90.815C106.186 90.815 107.306 91.23 108.026 92.06C108.746 92.88 109.106 94.025 109.106 95.495V107H106.226V97.265C106.226 96.265 106.166 95.455 106.046 94.835C105.936 94.215 105.701 93.765 105.341 93.485C104.981 93.195 104.436 93.05 103.706 93.05C102.846 93.05 102.066 93.315 101.366 93.845C100.666 94.375 100.106 94.945 99.6864 95.555V107H96.8064ZM124.185 84.485L127.065 84.83V107H124.53L124.29 104.975C123.17 106.575 121.68 107.375 119.82 107.375C118.46 107.375 117.335 107.03 116.445 106.34C115.565 105.64 114.91 104.67 114.48 103.43C114.05 102.19 113.835 100.75 113.835 99.11C113.835 97.51 114.08 96.09 114.57 94.85C115.07 93.6 115.78 92.615 116.7 91.895C117.63 91.175 118.75 90.815 120.06 90.815C121.76 90.815 123.135 91.415 124.185 92.615V84.485ZM120.81 93.08C119.57 93.08 118.61 93.575 117.93 94.565C117.26 95.555 116.925 97.07 116.925 99.11C116.925 101.14 117.23 102.645 117.84 103.625C118.46 104.605 119.35 105.095 120.51 105.095C121.34 105.095 122.055 104.86 122.655 104.39C123.265 103.91 123.775 103.35 124.185 102.71V94.985C123.775 94.385 123.28 93.92 122.7 93.59C122.13 93.25 121.5 93.08 120.81 93.08ZM132.828 100.025V97.595H145.008V100.025H132.828ZM157.266 84.83V102.92C157.266 103.68 157.501 104.22 157.971 104.54C158.441 104.85 159.046 105.005 159.786 105.005C160.256 105.005 160.701 104.96 161.121 104.87C161.551 104.77 161.971 104.635 162.381 104.465L163.131 106.52C162.691 106.75 162.141 106.95 161.481 107.12C160.821 107.29 160.076 107.375 159.246 107.375C157.756 107.375 156.571 106.96 155.691 106.13C154.821 105.3 154.386 104.16 154.386 102.71V87.02H149.571V84.83H157.266ZM174.895 83.63C175.495 83.63 175.975 83.815 176.335 84.185C176.705 84.555 176.89 85.005 176.89 85.535C176.89 86.085 176.705 86.55 176.335 86.93C175.975 87.3 175.495 87.485 174.895 87.485C174.305 87.485 173.825 87.3 173.455 86.93C173.095 86.55 172.915 86.085 172.915 85.535C172.915 85.005 173.095 84.555 173.455 84.185C173.825 83.815 174.305 83.63 174.895 83.63ZM177.04 91.19V104.81H181.435V107H169.345V104.81H174.16V93.38H169.495V91.19H177.04ZM186.748 107V91.19H189.223L189.433 93.32C190.083 92.51 190.873 91.89 191.803 91.46C192.743 91.03 193.678 90.815 194.608 90.815C196.128 90.815 197.248 91.23 197.968 92.06C198.688 92.88 199.048 94.025 199.048 95.495V107H196.168V97.265C196.168 96.265 196.108 95.455 195.988 94.835C195.878 94.215 195.643 93.765 195.283 93.485C194.923 93.195 194.378 93.05 193.648 93.05C192.788 93.05 192.008 93.315 191.308 93.845C190.608 94.375 190.048 94.945 189.628 95.555V107H186.748ZM207.061 100.07C207.141 101.81 207.611 103.075 208.471 103.865C209.341 104.655 210.371 105.05 211.561 105.05C212.351 105.05 213.076 104.93 213.736 104.69C214.396 104.45 215.066 104.1 215.746 103.64L217.051 105.455C216.311 106.045 215.456 106.515 214.486 106.865C213.516 107.205 212.511 107.375 211.471 107.375C209.891 107.375 208.546 107.03 207.436 106.34C206.336 105.64 205.496 104.67 204.916 103.43C204.346 102.19 204.061 100.75 204.061 99.11C204.061 97.52 204.346 96.1 204.916 94.85C205.496 93.6 206.311 92.615 207.361 91.895C208.411 91.175 209.661 90.815 211.111 90.815C213.151 90.815 214.756 91.515 215.926 92.915C217.106 94.305 217.696 96.21 217.696 98.63C217.696 98.9 217.691 99.16 217.681 99.41C217.671 99.66 217.656 99.88 217.636 100.07H207.061ZM211.141 93.065C210.011 93.065 209.076 93.465 208.336 94.265C207.596 95.065 207.171 96.3 207.061 97.97H214.921C214.891 96.37 214.541 95.155 213.871 94.325C213.211 93.485 212.301 93.065 211.141 93.065ZM253.763 89.36L254.603 91.91C253.943 92.12 253.233 92.255 252.473 92.315C251.723 92.375 250.893 92.405 249.983 92.405C251.853 93.245 252.788 94.575 252.788 96.395C252.788 97.955 252.248 99.24 251.168 100.25C250.098 101.26 248.613 101.765 246.713 101.765C246.213 101.765 245.788 101.745 245.438 101.705C245.088 101.655 244.753 101.58 244.433 101.48C243.923 101.84 243.668 102.32 243.668 102.92C243.668 103.27 243.808 103.57 244.088 103.82C244.368 104.06 244.913 104.18 245.723 104.18H248.528C249.618 104.18 250.588 104.37 251.438 104.75C252.298 105.13 252.973 105.65 253.463 106.31C253.953 106.96 254.198 107.695 254.198 108.515C254.198 110.085 253.528 111.29 252.188 112.13C250.858 112.98 248.958 113.405 246.488 113.405C244.748 113.405 243.378 113.225 242.378 112.865C241.388 112.505 240.683 111.97 240.263 111.26C239.853 110.55 239.648 109.66 239.648 108.59H242.243C242.243 109.18 242.358 109.665 242.588 110.045C242.818 110.435 243.238 110.72 243.848 110.9C244.458 111.09 245.338 111.185 246.488 111.185C248.188 111.185 249.413 110.975 250.163 110.555C250.913 110.135 251.288 109.52 251.288 108.71C251.288 108 250.973 107.46 250.343 107.09C249.713 106.73 248.908 106.55 247.928 106.55H245.153C243.733 106.55 242.688 106.25 242.018 105.65C241.358 105.05 241.028 104.35 241.028 103.55C241.028 102.44 241.608 101.505 242.768 100.745C240.978 99.805 240.083 98.34 240.083 96.35C240.083 95.27 240.353 94.315 240.893 93.485C241.443 92.645 242.203 91.99 243.173 91.52C244.143 91.05 245.258 90.815 246.518 90.815C247.828 90.815 248.903 90.755 249.743 90.635C250.583 90.515 251.308 90.345 251.918 90.125C252.528 89.905 253.143 89.65 253.763 89.36ZM246.533 92.855C245.343 92.855 244.458 93.185 243.878 93.845C243.308 94.495 243.023 95.33 243.023 96.35C243.023 97.39 243.318 98.235 243.908 98.885C244.498 99.535 245.393 99.86 246.593 99.86C247.653 99.86 248.463 99.55 249.023 98.93C249.583 98.31 249.863 97.44 249.863 96.32C249.863 94.01 248.753 92.855 246.533 92.855ZM258.851 107V104.87H261.251V93.32H258.851V91.19H263.456L263.981 94.895C264.581 93.585 265.316 92.58 266.186 91.88C267.066 91.17 268.206 90.815 269.606 90.815C270.066 90.815 270.471 90.85 270.821 90.92C271.181 90.99 271.546 91.08 271.916 91.19L271.466 96.74H269.246V93.44H269.231C266.861 93.44 265.161 95.135 264.131 98.525V104.87H267.341V107H258.851ZM288.344 103.37C288.344 104 288.444 104.46 288.644 104.75C288.844 105.03 289.159 105.24 289.589 105.38L288.914 107.36C288.194 107.27 287.564 107.055 287.024 106.715C286.494 106.375 286.104 105.855 285.854 105.155C285.284 105.895 284.564 106.45 283.694 106.82C282.824 107.19 281.879 107.375 280.859 107.375C279.269 107.375 278.014 106.925 277.094 106.025C276.174 105.125 275.714 103.94 275.714 102.47C275.714 100.83 276.354 99.57 277.634 98.69C278.924 97.8 280.774 97.355 283.184 97.355H285.479V96.155C285.479 95.065 285.154 94.29 284.504 93.83C283.864 93.37 282.969 93.14 281.819 93.14C281.289 93.14 280.664 93.205 279.944 93.335C279.234 93.465 278.474 93.67 277.664 93.95L276.929 91.85C277.899 91.48 278.834 91.215 279.734 91.055C280.634 90.895 281.474 90.815 282.254 90.815C284.284 90.815 285.804 91.28 286.814 92.21C287.834 93.14 288.344 94.405 288.344 96.005V103.37ZM281.669 105.215C282.399 105.215 283.104 105.025 283.784 104.645C284.474 104.265 285.039 103.735 285.479 103.055V99.23H283.379C281.709 99.23 280.524 99.515 279.824 100.085C279.124 100.645 278.774 101.415 278.774 102.395C278.774 104.275 279.739 105.215 281.669 105.215ZM305.313 90.815C305.853 90.815 306.358 90.935 306.828 91.175C307.308 91.415 307.693 91.855 307.983 92.495C308.273 93.125 308.417 94.04 308.417 95.24V107H305.793V95.66C305.793 94.74 305.733 94.08 305.613 93.68C305.503 93.27 305.183 93.065 304.653 93.065C304.213 93.065 303.773 93.2 303.333 93.47C302.903 93.74 302.483 94.19 302.073 94.82V107H299.553V95.66C299.553 94.74 299.493 94.08 299.373 93.68C299.263 93.27 298.943 93.065 298.413 93.065C297.963 93.065 297.523 93.2 297.093 93.47C296.663 93.74 296.243 94.19 295.833 94.82V107H293.208V91.19H295.428L295.608 92.96C296.048 92.35 296.533 91.84 297.063 91.43C297.603 91.02 298.258 90.815 299.028 90.815C299.628 90.815 300.183 90.96 300.693 91.25C301.213 91.54 301.593 92.08 301.833 92.87C302.263 92.26 302.753 91.765 303.303 91.385C303.853 91.005 304.523 90.815 305.313 90.815ZM323.301 90.815C323.841 90.815 324.346 90.935 324.816 91.175C325.296 91.415 325.681 91.855 325.971 92.495C326.261 93.125 326.406 94.04 326.406 95.24V107H323.781V95.66C323.781 94.74 323.721 94.08 323.601 93.68C323.491 93.27 323.171 93.065 322.641 93.065C322.201 93.065 321.761 93.2 321.321 93.47C320.891 93.74 320.471 94.19 320.061 94.82V107H317.541V95.66C317.541 94.74 317.481 94.08 317.361 93.68C317.251 93.27 316.931 93.065 316.401 93.065C315.951 93.065 315.511 93.2 315.081 93.47C314.651 93.74 314.231 94.19 313.821 94.82V107H311.196V91.19H313.416L313.596 92.96C314.036 92.35 314.521 91.84 315.051 91.43C315.591 91.02 316.246 90.815 317.016 90.815C317.616 90.815 318.171 90.96 318.681 91.25C319.201 91.54 319.581 92.08 319.821 92.87C320.251 92.26 320.741 91.765 321.291 91.385C321.841 91.005 322.511 90.815 323.301 90.815ZM342.309 103.37C342.309 104 342.409 104.46 342.609 104.75C342.809 105.03 343.124 105.24 343.554 105.38L342.879 107.36C342.159 107.27 341.529 107.055 340.989 106.715C340.459 106.375 340.069 105.855 339.819 105.155C339.249 105.895 338.529 106.45 337.659 106.82C336.789 107.19 335.844 107.375 334.824 107.375C333.234 107.375 331.979 106.925 331.059 106.025C330.139 105.125 329.679 103.94 329.679 102.47C329.679 100.83 330.319 99.57 331.599 98.69C332.889 97.8 334.739 97.355 337.149 97.355H339.444V96.155C339.444 95.065 339.119 94.29 338.469 93.83C337.829 93.37 336.934 93.14 335.784 93.14C335.254 93.14 334.629 93.205 333.909 93.335C333.199 93.465 332.439 93.67 331.629 93.95L330.894 91.85C331.864 91.48 332.799 91.215 333.699 91.055C334.599 90.895 335.439 90.815 336.219 90.815C338.249 90.815 339.769 91.28 340.779 92.21C341.799 93.14 342.309 94.405 342.309 96.005V103.37ZM335.634 105.215C336.364 105.215 337.069 105.025 337.749 104.645C338.439 104.265 339.004 103.735 339.444 103.055V99.23H337.344C335.674 99.23 334.489 99.515 333.789 100.085C333.089 100.645 332.739 101.415 332.739 102.395C332.739 104.275 333.704 105.215 335.634 105.215ZM348.792 107V104.87H351.192V93.32H348.792V91.19H353.397L353.922 94.895C354.522 93.585 355.257 92.58 356.127 91.88C357.007 91.17 358.147 90.815 359.547 90.815C360.007 90.815 360.412 90.85 360.762 90.92C361.122 90.99 361.487 91.08 361.857 91.19L361.407 96.74H359.187V93.44H359.172C356.802 93.44 355.102 95.135 354.072 98.525V104.87H357.282V107H348.792ZM391.969 104.945C392.739 104.945 393.454 104.82 394.114 104.57C394.784 104.31 395.409 103.975 395.989 103.565L397.369 105.44C396.669 106.02 395.829 106.49 394.849 106.85C393.879 107.2 392.904 107.375 391.924 107.375C390.334 107.375 388.974 107.035 387.844 106.355C386.724 105.675 385.869 104.72 385.279 103.49C384.689 102.26 384.394 100.82 384.394 99.17C384.394 97.57 384.689 96.145 385.279 94.895C385.879 93.635 386.744 92.64 387.874 91.91C389.004 91.18 390.369 90.815 391.969 90.815C394.029 90.815 395.819 91.435 397.339 92.675L395.974 94.55C394.644 93.63 393.314 93.17 391.984 93.17C390.664 93.17 389.584 93.66 388.744 94.64C387.904 95.62 387.484 97.13 387.484 99.17C387.484 101.22 387.904 102.695 388.744 103.595C389.594 104.495 390.669 104.945 391.969 104.945ZM405.487 84.545V93.245C406.117 92.445 406.872 91.84 407.752 91.43C408.642 91.02 409.547 90.815 410.467 90.815C411.987 90.815 413.107 91.23 413.827 92.06C414.547 92.88 414.907 94.025 414.907 95.495V107H412.027V95.75C412.027 94.8 411.822 94.115 411.412 93.695C411.012 93.265 410.372 93.05 409.492 93.05C408.652 93.05 407.877 93.315 407.167 93.845C406.467 94.375 405.907 94.95 405.487 95.57V107H402.607V84.86L405.487 84.545ZM422.92 100.07C423 101.81 423.47 103.075 424.33 103.865C425.2 104.655 426.23 105.05 427.42 105.05C428.21 105.05 428.935 104.93 429.595 104.69C430.255 104.45 430.925 104.1 431.605 103.64L432.91 105.455C432.17 106.045 431.315 106.515 430.345 106.865C429.375 107.205 428.37 107.375 427.33 107.375C425.75 107.375 424.405 107.03 423.295 106.34C422.195 105.64 421.355 104.67 420.775 103.43C420.205 102.19 419.92 100.75 419.92 99.11C419.92 97.52 420.205 96.1 420.775 94.85C421.355 93.6 422.17 92.615 423.22 91.895C424.27 91.175 425.52 90.815 426.97 90.815C429.01 90.815 430.615 91.515 431.785 92.915C432.965 94.305 433.555 96.21 433.555 98.63C433.555 98.9 433.55 99.16 433.54 99.41C433.53 99.66 433.515 99.88 433.495 100.07H422.92ZM427 93.065C425.87 93.065 424.935 93.465 424.195 94.265C423.455 95.065 423.03 96.3 422.92 97.97H430.78C430.75 96.37 430.4 95.155 429.73 94.325C429.07 93.485 428.16 93.065 427 93.065ZM445.934 104.945C446.704 104.945 447.419 104.82 448.079 104.57C448.749 104.31 449.374 103.975 449.954 103.565L451.334 105.44C450.634 106.02 449.794 106.49 448.814 106.85C447.844 107.2 446.869 107.375 445.889 107.375C444.299 107.375 442.939 107.035 441.809 106.355C440.689 105.675 439.834 104.72 439.244 103.49C438.654 102.26 438.359 100.82 438.359 99.17C438.359 97.57 438.654 96.145 439.244 94.895C439.844 93.635 440.709 92.64 441.839 91.91C442.969 91.18 444.334 90.815 445.934 90.815C447.994 90.815 449.784 91.435 451.304 92.675L449.939 94.55C448.609 93.63 447.279 93.17 445.949 93.17C444.629 93.17 443.549 93.66 442.709 94.64C441.869 95.62 441.449 97.13 441.449 99.17C441.449 101.22 441.869 102.695 442.709 103.595C443.559 104.495 444.634 104.945 445.934 104.945ZM459.587 84.485V107H456.707V84.83L459.587 84.485ZM470.117 91.19L463.307 98.285L470.867 107H467.222L459.857 98.36L466.562 91.19H470.117ZM476.885 100.07C476.965 101.81 477.435 103.075 478.295 103.865C479.165 104.655 480.195 105.05 481.385 105.05C482.175 105.05 482.9 104.93 483.56 104.69C484.22 104.45 484.89 104.1 485.57 103.64L486.875 105.455C486.135 106.045 485.28 106.515 484.31 106.865C483.34 107.205 482.335 107.375 481.295 107.375C479.715 107.375 478.37 107.03 477.26 106.34C476.16 105.64 475.32 104.67 474.74 103.43C474.17 102.19 473.885 100.75 473.885 99.11C473.885 97.52 474.17 96.1 474.74 94.85C475.32 93.6 476.135 92.615 477.185 91.895C478.235 91.175 479.485 90.815 480.935 90.815C482.975 90.815 484.58 91.515 485.75 92.915C486.93 94.305 487.52 96.21 487.52 98.63C487.52 98.9 487.515 99.16 487.505 99.41C487.495 99.66 487.48 99.88 487.46 100.07H476.885ZM480.965 93.065C479.835 93.065 478.9 93.465 478.16 94.265C477.42 95.065 476.995 96.3 476.885 97.97H484.745C484.715 96.37 484.365 95.155 483.695 94.325C483.035 93.485 482.125 93.065 480.965 93.065ZM492.699 107V104.87H495.099V93.32H492.699V91.19H497.304L497.829 94.895C498.429 93.585 499.164 92.58 500.034 91.88C500.914 91.17 502.054 90.815 503.454 90.815C503.914 90.815 504.319 90.85 504.669 90.92C505.029 90.99 505.394 91.08 505.764 91.19L505.314 96.74H503.094V93.44H503.079C500.709 93.44 499.009 95.135 497.979 98.525V104.87H501.189V107H492.699Z" fill="url(#paint0_linear)"/>
<path d="M163.196 12.664L165.212 18.784C163.628 19.288 161.924 19.612 160.1 19.756C158.3 19.9 156.308 19.972 154.124 19.972C158.612 21.988 160.856 25.18 160.856 29.548C160.856 33.292 159.56 36.376 156.968 38.8C154.4 41.224 150.836 42.436 146.276 42.436C145.076 42.436 144.056 42.388 143.216 42.292C142.376 42.172 141.572 41.992 140.804 41.752C139.58 42.616 138.968 43.768 138.968 45.208C138.968 46.048 139.304 46.768 139.976 47.368C140.648 47.944 141.956 48.232 143.9 48.232H150.632C153.248 48.232 155.576 48.688 157.616 49.6C159.68 50.512 161.3 51.76 162.476 53.344C163.652 54.904 164.24 56.668 164.24 58.636C164.24 62.404 162.632 65.296 159.416 67.312C156.224 69.352 151.664 70.372 145.736 70.372C141.56 70.372 138.272 69.94 135.872 69.076C133.496 68.212 131.804 66.928 130.796 65.224C129.812 63.52 129.32 61.384 129.32 58.816H135.548C135.548 60.232 135.824 61.396 136.376 62.308C136.928 63.244 137.936 63.928 139.4 64.36C140.864 64.816 142.976 65.044 145.736 65.044C149.816 65.044 152.756 64.54 154.556 63.532C156.356 62.524 157.256 61.048 157.256 59.104C157.256 57.4 156.5 56.104 154.988 55.216C153.476 54.352 151.544 53.92 149.192 53.92H142.532C139.124 53.92 136.616 53.2 135.008 51.76C133.424 50.32 132.632 48.64 132.632 46.72C132.632 44.056 134.024 41.812 136.808 39.988C132.512 37.732 130.364 34.216 130.364 29.44C130.364 26.848 131.012 24.556 132.308 22.564C133.628 20.548 135.452 18.976 137.78 17.848C140.108 16.72 142.784 16.156 145.808 16.156C148.952 16.156 151.532 16.012 153.548 15.724C155.564 15.436 157.304 15.028 158.768 14.5C160.232 13.972 161.708 13.36 163.196 12.664ZM145.844 21.052C142.988 21.052 140.864 21.844 139.472 23.428C138.104 24.988 137.42 26.992 137.42 29.44C137.42 31.936 138.128 33.964 139.544 35.524C140.96 37.084 143.108 37.864 145.988 37.864C148.532 37.864 150.476 37.12 151.82 35.632C153.164 34.144 153.836 32.056 153.836 29.368C153.836 23.824 151.172 21.052 145.844 21.052ZM175.408 55V49.888H181.168V22.168H175.408V17.056H186.46L187.72 25.948C189.16 22.804 190.924 20.392 193.012 18.712C195.124 17.008 197.86 16.156 201.22 16.156C202.324 16.156 203.296 16.24 204.136 16.408C205 16.576 205.876 16.792 206.764 17.056L205.684 30.376H200.356V22.456H200.32C194.632 22.456 190.552 26.524 188.08 34.66V49.888H195.784V55H175.408ZM246.192 46.288C246.192 47.8 246.432 48.904 246.912 49.6C247.392 50.272 248.148 50.776 249.18 51.112L247.56 55.864C245.832 55.648 244.32 55.132 243.024 54.316C241.752 53.5 240.816 52.252 240.216 50.572C238.848 52.348 237.12 53.68 235.032 54.568C232.944 55.456 230.676 55.9 228.228 55.9C224.412 55.9 221.4 54.82 219.192 52.66C216.984 50.5 215.88 47.656 215.88 44.128C215.88 40.192 217.416 37.168 220.488 35.056C223.584 32.92 228.024 31.852 233.808 31.852H239.316V28.972C239.316 26.356 238.536 24.496 236.976 23.392C235.44 22.288 233.292 21.736 230.532 21.736C229.26 21.736 227.76 21.892 226.032 22.204C224.328 22.516 222.504 23.008 220.56 23.68L218.796 18.64C221.124 17.752 223.368 17.116 225.528 16.732C227.688 16.348 229.704 16.156 231.576 16.156C236.448 16.156 240.096 17.272 242.52 19.504C244.968 21.736 246.192 24.772 246.192 28.612V46.288ZM230.172 50.716C231.924 50.716 233.616 50.26 235.248 49.348C236.904 48.436 238.26 47.164 239.316 45.532V36.352H234.276C230.268 36.352 227.424 37.036 225.744 38.404C224.064 39.748 223.224 41.596 223.224 43.948C223.224 48.46 225.54 50.716 230.172 50.716ZM286.916 16.156C288.212 16.156 289.424 16.444 290.552 17.02C291.704 17.596 292.628 18.652 293.324 20.188C294.02 21.7 294.368 23.896 294.368 26.776V55H288.068V27.784C288.068 25.576 287.924 23.992 287.636 23.032C287.372 22.048 286.604 21.556 285.332 21.556C284.276 21.556 283.22 21.88 282.164 22.528C281.132 23.176 280.124 24.256 279.14 25.768V55H273.092V27.784C273.092 25.576 272.948 23.992 272.66 23.032C272.396 22.048 271.628 21.556 270.356 21.556C269.276 21.556 268.22 21.88 267.188 22.528C266.156 23.176 265.148 24.256 264.164 25.768V55H257.864V17.056H263.192L263.624 21.304C264.68 19.84 265.844 18.616 267.116 17.632C268.412 16.648 269.984 16.156 271.832 16.156C273.272 16.156 274.604 16.504 275.828 17.2C277.076 17.896 277.988 19.192 278.564 21.088C279.596 19.624 280.772 18.436 282.092 17.524C283.412 16.612 285.02 16.156 286.916 16.156ZM330.088 16.156C331.384 16.156 332.596 16.444 333.724 17.02C334.876 17.596 335.8 18.652 336.496 20.188C337.192 21.7 337.539 23.896 337.539 26.776V55H331.24V27.784C331.24 25.576 331.096 23.992 330.808 23.032C330.544 22.048 329.776 21.556 328.504 21.556C327.448 21.556 326.392 21.88 325.336 22.528C324.304 23.176 323.296 24.256 322.312 25.768V55H316.264V27.784C316.264 25.576 316.12 23.992 315.832 23.032C315.568 22.048 314.8 21.556 313.528 21.556C312.448 21.556 311.392 21.88 310.36 22.528C309.328 23.176 308.32 24.256 307.336 25.768V55H301.036V17.056H306.364L306.796 21.304C307.852 19.84 309.016 18.616 310.288 17.632C311.584 16.648 313.156 16.156 315.004 16.156C316.444 16.156 317.776 16.504 319 17.2C320.248 17.896 321.16 19.192 321.736 21.088C322.768 19.624 323.944 18.436 325.264 17.524C326.584 16.612 328.192 16.156 330.088 16.156ZM375.707 46.288C375.707 47.8 375.947 48.904 376.427 49.6C376.907 50.272 377.663 50.776 378.695 51.112L377.075 55.864C375.347 55.648 373.835 55.132 372.539 54.316C371.267 53.5 370.331 52.252 369.731 50.572C368.363 52.348 366.635 53.68 364.547 54.568C362.459 55.456 360.191 55.9 357.743 55.9C353.927 55.9 350.915 54.82 348.707 52.66C346.499 50.5 345.395 47.656 345.395 44.128C345.395 40.192 346.931 37.168 350.003 35.056C353.099 32.92 357.539 31.852 363.323 31.852H368.831V28.972C368.831 26.356 368.051 24.496 366.491 23.392C364.955 22.288 362.807 21.736 360.047 21.736C358.775 21.736 357.275 21.892 355.547 22.204C353.843 22.516 352.019 23.008 350.075 23.68L348.311 18.64C350.639 17.752 352.883 17.116 355.043 16.732C357.203 16.348 359.219 16.156 361.091 16.156C365.963 16.156 369.611 17.272 372.035 19.504C374.483 21.736 375.707 24.772 375.707 28.612V46.288ZM359.687 50.716C361.439 50.716 363.131 50.26 364.763 49.348C366.419 48.436 367.775 47.164 368.831 45.532V36.352H363.791C359.783 36.352 356.939 37.036 355.259 38.404C353.579 39.748 352.739 41.596 352.739 43.948C352.739 48.46 355.055 50.716 359.687 50.716Z" fill="url(#paint1_linear)"/>
</g>
<defs>
<linearGradient id="paint0_linear" x1="256" y1="77" x2="256" y2="126" gradientUnits="userSpaceOnUse">
<stop stop-color="#024160"/>
<stop offset="1" stop-color="#74980D"/>
</linearGradient>
<linearGradient id="paint1_linear" x1="256" y1="-16" x2="256" y2="52" gradientUnits="userSpaceOnUse">
<stop stop-color="#024160"/>
<stop offset="1" stop-color="#74980D"/>
</linearGradient>
<clipPath id="clip0">
<rect width="512" height="120" fill="white"/>
</clipPath>
</defs>
</svg>
