<svg width="256" height="256" viewBox="0 0 256 256" fill="none" xmlns="http://www.w3.org/2000/svg">
<circle cx="128" cy="128" r="122" fill="url(#paint0_linear)"/>
<path fill-rule="evenodd" clip-rule="evenodd" d="M128.349 14.7256C131.697 14.8293 134.979 15.6464 137.987 17.1216C140.994 18.5968 143.66 20.6964 145.792 23.2806C147.924 25.8647 149.475 28.8739 150.352 32.1072C151.228 35.3404 151.405 38.7232 150.871 42.0303C143.644 38.4397 135.685 36.571 127.616 36.571C119.547 36.571 111.588 38.4397 104.362 42.0303C103.808 38.6018 104.022 35.093 104.983 31.7554C105.943 28.4179 107.627 25.334 109.919 22.7247C112.211 20.1153 115.047 18.0453 118.233 16.6624C121.419 15.2795 124.878 14.618 128.349 14.7256ZM126.67 39.9949C139.022 39.7527 151.01 44.2019 160.213 52.4451C169.416 60.6883 175.148 72.1127 176.262 84.4172L176.527 87.2464C169.841 87.2518 163.292 85.3413 157.659 81.7413C152.025 78.1414 147.538 73.0026 144.734 66.9333C144.449 66.3167 144.015 65.7809 143.472 65.3736C142.929 64.9664 142.291 64.7008 141.62 64.6008C140.948 64.5008 140.263 64.5692 139.625 64.8006C138.987 65.0319 138.418 65.4188 137.966 65.9257C130.777 74.0015 121.421 79.841 111.007 82.7495C100.594 85.658 89.5584 85.5126 79.2249 82.331C80.7752 70.7701 86.4175 60.1462 95.1213 52.3809C103.825 44.6156 115.018 40.2218 126.68 39.9949H126.67Z" fill="#D7D7D7"/>
<path fill-rule="evenodd" clip-rule="evenodd" d="M128.349 14.7256C131.697 14.8293 134.979 15.6464 137.987 17.1216C140.994 18.5968 143.66 20.6964 145.792 23.2806C147.924 25.8647 149.475 28.8739 150.352 32.1072C151.228 35.3404 151.405 38.7232 150.871 42.0303C143.644 38.4397 135.685 36.571 127.616 36.571C119.547 36.571 111.588 38.4397 104.362 42.0303C103.808 38.6018 104.022 35.093 104.983 31.7554C105.943 28.4179 107.627 25.334 109.919 22.7247C112.211 20.1153 115.047 18.0453 118.233 16.6624C121.419 15.2795 124.878 14.618 128.349 14.7256ZM126.67 39.9949C139.022 39.7527 151.01 44.2019 160.213 52.4451C169.416 60.6883 175.148 72.1127 176.262 84.4172L176.527 87.2464C169.841 87.2518 163.292 85.3413 157.659 81.7413C152.025 78.1414 147.538 73.0026 144.734 66.9333C144.449 66.3167 144.015 65.7809 143.472 65.3736C142.929 64.9664 142.291 64.7008 141.62 64.6008C140.948 64.5008 140.263 64.5692 139.625 64.8006C138.987 65.0319 138.418 65.4188 137.966 65.9257C130.777 74.0015 121.421 79.841 111.007 82.7495C100.594 85.658 89.5584 85.5126 79.2249 82.331C80.7752 70.7701 86.4175 60.1462 95.1213 52.3809C103.825 44.6156 115.018 40.2218 126.68 39.9949H126.67Z" fill="url(#paint1_linear)" fill-opacity="0.2"/>
<path fill-rule="evenodd" clip-rule="evenodd" d="M105.817 169.479L97.8284 163.087C90.359 165.02 83.7446 169.379 79.0214 175.48C74.2983 181.581 71.7349 189.078 71.7347 196.793V225.227C89.3167 233.091 108.356 237.156 127.616 237.156C146.877 237.156 165.926 233.091 183.508 225.227V196.793C183.508 189.079 180.942 181.583 176.221 175.482C171.5 169.382 164.892 165.022 157.425 163.087L149.415 169.479C151.096 173.134 151.832 177.153 151.552 181.166C151.273 185.18 149.988 189.058 147.817 192.445C145.647 195.833 142.656 198.62 139.126 200.55C135.597 202.48 131.639 203.492 127.616 203.492C123.593 203.492 119.636 202.48 116.106 200.55C112.576 198.62 109.586 195.833 107.415 192.445C105.244 189.058 103.96 185.18 103.68 181.166C103.401 177.153 104.137 173.134 105.817 169.479Z" fill="#B8E045"/>
<path fill-rule="evenodd" clip-rule="evenodd" d="M105.817 169.479L97.8284 163.087C90.359 165.02 83.7446 169.379 79.0214 175.48C74.2983 181.581 71.7349 189.078 71.7347 196.793V225.227C89.3167 233.091 108.356 237.156 127.616 237.156C146.877 237.156 165.926 233.091 183.508 225.227V196.793C183.508 189.079 180.942 181.583 176.221 175.482C171.5 169.382 164.892 165.022 157.425 163.087L149.415 169.479C151.096 173.134 151.832 177.153 151.552 181.166C151.273 185.18 149.988 189.058 147.817 192.445C145.647 195.833 142.656 198.62 139.126 200.55C135.597 202.48 131.639 203.492 127.616 203.492C123.593 203.492 119.636 202.48 116.106 200.55C112.576 198.62 109.586 195.833 107.415 192.445C105.244 189.058 103.96 185.18 103.68 181.166C103.401 177.153 104.137 173.134 105.817 169.479Z" fill="url(#paint2_linear)"/>
<path d="M95.325 129.554C96.8728 135.567 102.332 140.011 108.829 140.011C115.325 140.011 120.784 135.567 122.332 129.554H95.325Z" fill="#CA956F"/>
<path d="M147.171 140.011C140.675 140.011 135.216 135.567 133.668 129.554H160.675C159.127 135.567 153.668 140.011 147.171 140.011Z" fill="#CA956F"/>
<path fill-rule="evenodd" clip-rule="evenodd" d="M141.345 68.0654C141.231 67.9967 141.102 67.964 140.968 67.9713L140.958 67.9592C140.868 67.9645 140.774 67.9882 140.694 68.0285C140.613 68.0688 140.548 68.1251 140.49 68.1939C132.941 76.6729 123.135 82.8293 112.219 85.945C101.302 89.0607 89.7253 89.0069 78.8382 85.7898L77.505 100.526L77.1081 104.995L75.8971 118.245C75.2988 124.817 76.3437 131.433 78.9298 137.504C81.5159 143.574 85.5614 148.909 90.7147 153.03L109.033 167.665C114.307 171.878 120.856 174.173 127.606 174.173C134.356 174.173 140.905 171.878 146.179 167.665L164.487 153.03C169.643 148.91 173.694 143.576 176.282 137.505C178.87 131.435 179.912 124.818 179.315 118.245L178.114 104.995L177.717 100.526L176.812 90.6544C169.421 90.7186 162.162 88.649 155.918 84.6939C149.674 80.7388 144.71 75.0663 141.61 68.3567C141.554 68.2357 141.459 68.1342 141.345 68.0654ZM91.7486 129.554C91.52 128.427 91.4 127.262 91.4 126.068H164.6C164.6 127.262 164.48 128.427 164.251 129.554C162.637 137.509 155.603 143.496 147.171 143.496C138.74 143.496 131.706 137.509 130.091 129.554H125.909C124.294 137.509 117.26 143.496 108.829 143.496C100.397 143.496 93.3635 137.509 91.7486 129.554ZM116.576 121.883C108.988 116.824 103.159 119.853 101.347 121.665C100.666 122.346 99.5625 122.346 98.8819 121.665C98.2013 120.985 98.2013 119.881 98.8819 119.201C101.717 116.366 109.367 112.888 118.51 118.983C119.311 119.517 119.527 120.599 118.993 121.4C118.459 122.201 117.377 122.417 116.576 121.883ZM157.118 119.201C154.283 116.366 146.633 112.888 137.49 118.983C136.689 119.517 136.473 120.599 137.007 121.4C137.541 122.201 138.623 122.417 139.424 121.883C147.012 116.824 152.841 119.853 154.653 121.665C155.334 122.346 156.437 122.346 157.118 121.665C157.799 120.985 157.799 119.881 157.118 119.201Z" fill="#CA956F"/>
<path d="M74.34 97.4335H74.2281C71.8726 97.8951 69.73 99.1074 68.1219 100.889C66.5138 102.671 65.5212 104.926 65.3029 107.317C65.0845 109.707 65.6522 112.103 66.9109 114.147C68.1695 116.191 70.0514 117.772 72.2843 118.652C72.3318 118.485 72.3829 118.317 72.434 118.15L72.4346 118.148C72.4558 118.079 72.4771 118.009 72.498 117.94L74.34 97.4335Z" fill="#CA956F"/>
<path d="M186.958 100.912C185.36 99.1272 183.22 97.9069 180.872 97.4335L182.755 117.929C182.757 118.167 182.757 118.405 182.755 118.642C184.983 117.764 186.869 116.189 188.128 114.151C189.388 112.113 189.947 109.723 189.736 107.337C189.525 104.951 188.555 102.697 186.958 100.912Z" fill="#CA956F"/>
<path d="M127.616 177.605C120.82 177.605 114.188 175.517 108.616 171.625C107.321 174.75 106.819 178.147 107.15 181.513C107.481 184.88 108.63 188.112 110.509 190.925C112.388 193.738 114.934 196.044 117.918 197.639C120.901 199.234 124.234 200.068 127.616 200.068C130.999 200.068 134.332 199.234 137.315 197.639C140.298 196.044 142.834 193.738 144.713 190.925C146.593 188.112 147.751 184.88 148.082 181.513C148.413 178.147 147.912 174.75 146.617 171.625C141.045 175.517 134.413 177.605 127.616 177.605Z" fill="#CA956F"/>
<path fill-rule="evenodd" clip-rule="evenodd" d="M108.829 140.011C102.332 140.011 96.8728 135.567 95.325 129.554H122.332C120.784 135.567 115.325 140.011 108.829 140.011ZM147.171 140.011C140.675 140.011 135.216 135.567 133.668 129.554H160.675C159.127 135.567 153.668 140.011 147.171 140.011Z" fill="#CA956F"/>
<path fill-rule="evenodd" clip-rule="evenodd" d="M108.829 140.011C102.332 140.011 96.8728 135.567 95.325 129.554H122.332C120.784 135.567 115.325 140.011 108.829 140.011ZM147.171 140.011C140.675 140.011 135.216 135.567 133.668 129.554H160.675C159.127 135.567 153.668 140.011 147.171 140.011Z" fill="#0697FF" fill-opacity="0.2"/>
<path d="M194.73 234.668C175.263 244.435 152.843 250 128.981 250C104.324 250 81.2076 244.059 61.2968 233.679L61.2968 195.1C82.5993 195.838 97.1814 199.621 128.014 212.529C158.216 199.706 172.782 195.958 194.73 195.1V234.668Z" fill="#42C2EA"/>
<path d="M194.73 234.668C175.263 244.435 152.843 250 128.981 250C104.324 250 81.2076 244.059 61.2968 233.679L61.2968 195.1C82.5993 195.838 97.1814 199.621 128.014 212.529C158.216 199.706 172.782 195.958 194.73 195.1V234.668Z" fill="url(#paint3_linear)" fill-opacity="0.5"/>
<path fill-rule="evenodd" clip-rule="evenodd" d="M197.714 194.736V214.271H192.547V198.069C192.547 197.503 192.082 197.049 191.517 197.076C165.499 198.311 134.302 212.111 130 214.065V249.984C129.335 249.995 128.668 250 128 250C127.332 250 126.665 249.995 126 249.984V214.042C121.512 212.007 90.4484 198.306 64.5329 197.076C63.9677 197.049 63.5031 197.503 63.5031 198.069V214.271H58.2857V194.736C58.2869 194.139 58.5613 193.567 59.0487 193.145C59.5361 192.723 60.1966 192.486 60.8853 192.486C66.1458 192.528 71.3914 192.977 76.5602 193.826L82.2547 194.847C103.483 199.091 123.348 207.766 128.002 209.879C132.661 207.762 152.544 199.076 173.809 194.835L179.549 193.81C184.684 192.97 189.894 192.526 195.119 192.486C195.807 192.486 196.468 192.723 196.954 193.145C197.441 193.567 197.714 194.139 197.714 194.736Z" fill="#262626"/>
<path d="M75.1765 223.846L75.1764 223.844C75.1738 221.606 74.232 219.479 72.5873 217.923C70.9456 216.37 68.7367 215.51 66.4489 215.508C66.4488 215.508 66.4486 215.508 66.4485 215.508L60.7816 215.5V215.5L60.778 215.5C59.4057 215.501 58.0743 216.017 57.0795 216.957C56.0818 217.899 55.5031 219.196 55.5 220.568H55.5V220.571L55.5 234.425L55.5 234.427C55.5016 235.799 56.0795 237.098 57.0774 238.042C58.0725 238.983 59.4047 239.499 60.778 239.5H60.7796L66.4469 239.5L66.4493 239.5C68.7374 239.496 70.9464 238.635 72.5879 237.082C74.2322 235.526 75.1738 233.398 75.1765 231.16V231.158V223.846ZM199.5 234.427V234.425V220.579V220.575C199.497 219.204 198.918 217.907 197.921 216.964C196.926 216.024 195.594 215.509 194.222 215.508H194.22L188.553 215.508L188.552 215.508C186.264 215.51 184.054 216.37 182.413 217.923C180.768 219.479 179.826 221.606 179.824 223.844V223.846V231.158V231.16C179.826 233.398 180.768 235.526 182.412 237.082C184.054 238.635 186.263 239.496 188.551 239.5H188.553H194.22H194.222C195.595 239.499 196.927 238.983 197.923 238.042C198.92 237.098 199.498 235.799 199.5 234.427Z" fill="#E0A976" stroke="#272727" stroke-width="3"/>
<defs>
<linearGradient id="paint0_linear" x1="128" y1="6" x2="128" y2="250" gradientUnits="userSpaceOnUse">
<stop/>
<stop offset="0.795902" stop-color="#272727"/>
<stop offset="1" stop-color="#232323"/>
</linearGradient>
<linearGradient id="paint1_linear" x1="127.876" y1="14.7143" x2="127.876" y2="87.2464" gradientUnits="userSpaceOnUse">
<stop/>
<stop offset="1" stop-opacity="0"/>
</linearGradient>
<linearGradient id="paint2_linear" x1="127.621" y1="163.087" x2="128" y2="217.757" gradientUnits="userSpaceOnUse">
<stop stop-opacity="0"/>
<stop offset="1" stop-color="#FFE600"/>
</linearGradient>
<linearGradient id="paint3_linear" x1="128.014" y1="195.1" x2="128.014" y2="250" gradientUnits="userSpaceOnUse">
<stop stop-opacity="0"/>
<stop offset="1" stop-color="#0E183D"/>
</linearGradient>
</defs>
</svg>
